<svg width="92" height="92" viewBox="0 0 92 92" fill="none" xmlns="http://www.w3.org/2000/svg">
<rect width="92" height="92" rx="25.2626" fill="white"/>
<g clip-path="url(#clip0_7754_18037)">
<rect x="24.9648" y="33.0488" width="21" height="13" rx="2" fill="white"/>
<path d="M30.7688 44.6275L29.837 43.6222L28.8693 44.6275H26.9698H22.884V39.9475H20.9845L23.3499 34.7128H25.6437L26.468 36.5155V34.7128H29.3352L29.837 36.0648L30.3387 34.7128H32.525V33.9155C32.525 33.4302 32.1307 33.0488 31.629 33.0488H12.4187C11.9169 33.0488 11.5227 33.4302 11.5227 33.9155V45.1822C11.5227 45.6675 11.9169 46.0488 12.4187 46.0488H31.629C32.1307 46.0488 32.525 45.6675 32.525 45.1822V44.6275H30.7688Z" fill="#0071CE"/>
<path d="M63.517 56.5175L61.6505 54.4355L59.7121 56.5175H55.9071H47.7228V46.8256H43.9179L48.6561 35.9851H53.2508L54.902 39.7182V35.9851H60.6454L61.6505 38.7849L62.6555 35.9851H67.0348V34.3339C67.0348 33.3288 66.2451 32.5391 65.24 32.5391H26.7596C25.7546 32.5391 24.9648 33.3288 24.9648 34.3339V57.6662C24.9648 58.6712 25.7546 59.4609 26.7596 59.4609H65.24C66.2451 59.4609 67.0348 58.6712 67.0348 57.6662V56.5175H63.517Z" fill="#0071CE"/>
<path d="M64.0197 55.3684H67.0349L63.0864 51.1327L67.0349 46.9688H64.0915L61.5787 49.6968L59.1378 46.9688H56.1226L60.1429 51.2045L56.1226 55.3684H59.066L61.5787 52.6403L64.0197 55.3684Z" fill="#0071CE"/>
<path d="M51.3125 53.43V52.1378H56.0507V50.1994H51.3125V48.9071H56.1225V46.9688H49.0151V55.3684H56.1225V53.43H51.3125Z" fill="#0071CE"/>
<path d="M64.8094 45.7488H66.9631V37.2773L63.5171 37.3491L61.6505 42.5899L59.7121 37.3491H56.1226V45.7488H58.4199V39.8618L60.5737 45.7488H62.5838L64.8094 39.8618V45.7488Z" fill="#0071CE"/>
<path d="M52.4611 37.3496H49.5176L45.7844 45.7492H48.2971L49.0151 44.098H52.8918L53.6097 45.7492H56.1942L52.4611 37.3496ZM49.8048 42.1597L50.9534 39.4316L52.1021 42.1597H49.8048Z" fill="#0071CE"/>
<path d="M64.9529 51.0571L67.0348 53.3544V48.7598L64.9529 51.0571Z" fill="#0071CE"/>
</g>
<defs>
<clipPath id="clip0_7754_18037">
<rect x="24.9648" y="32.5391" width="42.07" height="26.9219" rx="2" fill="white"/>
</clipPath>
</defs>
</svg>
