<svg width="92" height="92" viewBox="0 0 92 92" fill="none" xmlns="http://www.w3.org/2000/svg">
<rect width="92" height="92" rx="25.2626" fill="white"/>
<path d="M28.5091 37.0529C29.1712 36.2158 29.6205 35.0919 29.502 33.9434C28.5328 33.9921 27.35 34.5897 26.6652 35.4274C26.0503 36.1448 25.5061 37.3158 25.648 38.4162C26.736 38.5116 27.8231 37.8665 28.5091 37.0529Z" fill="black"/>
<path d="M29.4896 38.6314C27.9095 38.5362 26.566 39.5378 25.8114 39.5378C25.0564 39.5378 23.9009 38.6793 22.6511 38.7024C21.0244 38.7266 19.5151 39.6562 18.6896 41.1347C16.9917 44.0924 18.2415 48.4798 19.8926 50.8887C20.6944 52.0805 21.6607 53.3927 22.9339 53.3456C24.137 53.2979 24.6085 52.5583 26.0708 52.5583C27.532 52.5583 27.9568 53.3456 29.2302 53.3217C30.5508 53.2979 31.3765 52.1294 32.1782 50.9364C33.098 49.5779 33.4746 48.2661 33.4983 48.1941C33.4746 48.1702 30.9518 47.192 30.9284 44.2589C30.9046 41.8029 32.9091 40.6347 33.0034 40.5623C31.8714 38.8701 30.1028 38.6793 29.4896 38.6314Z" fill="black"/>
<path d="M43.2482 35.3076C46.6826 35.3076 49.074 37.7004 49.074 41.184C49.074 44.6801 46.6334 47.0852 43.1621 47.0852H39.3596V53.1971H36.6123V35.3076L43.2482 35.3076ZM39.3596 44.7544H42.5119C44.9039 44.7544 46.2652 43.4528 46.2652 41.1964C46.2652 38.9402 44.9039 37.6508 42.5242 37.6508H39.3596V44.7544Z" fill="black"/>
<path d="M49.792 49.4899C49.792 47.2086 51.5215 45.8077 54.5882 45.6341L58.1205 45.4235V44.4194C58.1205 42.9688 57.1514 42.101 55.5326 42.101C53.9991 42.101 53.0423 42.8447 52.8095 44.0102H50.3073C50.4544 41.6545 52.4413 39.9189 55.6306 39.9189C58.7583 39.9189 60.7575 41.5926 60.7575 44.2085V53.1966H58.2184V51.0519H58.1574C57.4093 52.5024 55.7778 53.4197 54.0852 53.4197C51.5584 53.4197 49.792 51.8329 49.792 49.4899ZM58.1205 48.3122V47.2832L54.9435 47.4814C53.3612 47.5931 52.4659 48.2997 52.4659 49.4155C52.4659 50.5559 53.3981 51.2998 54.821 51.2998C56.673 51.2998 58.1205 50.0104 58.1205 48.3122Z" fill="black"/>
<path d="M63.1544 57.9943V55.8247C63.3503 55.8742 63.7917 55.8742 64.0127 55.8742C65.2392 55.8742 65.9017 55.3536 66.3062 54.0147C66.3062 53.9899 66.5395 53.2213 66.5395 53.2089L61.8787 40.1543H64.7485L68.0116 50.7666H68.0603L71.3234 40.1543H74.1199L69.2868 53.8782C68.1834 57.0397 66.9076 58.0562 64.2337 58.0562C64.0127 58.0562 63.3503 58.0314 63.1544 57.9943Z" fill="black"/>
</svg>
