<svg width="92" height="92" viewBox="0 0 92 92" fill="none" xmlns="http://www.w3.org/2000/svg">
<rect width="92" height="92" rx="25.2626" fill="white"/>
<path d="M41.4752 63.0893C42.2714 64.0504 43.0775 64.9619 43.8836 65.7942H42.9989C42.4975 65.2492 41.9864 64.6845 41.485 64.0999C38.4474 60.5332 35.4491 56.144 32.5098 52.1512V51.0713C35.4589 55.0443 38.4572 59.4631 41.4752 63.0893Z" fill="#FF002F"/>
<path d="M48.1206 60.1556C46.3118 58.1344 45.1124 55.499 44.0999 52.596C42.586 48.2465 41.5342 43.3125 39.4796 39.0323C38.4474 36.9022 37.1596 34.9206 35.4294 33.2859C34.5742 32.4734 33.6108 31.7502 32.5098 31.126V32.0672C33.1193 32.4437 33.6894 32.8499 34.2203 33.2958C36.8843 35.525 38.5555 38.5766 39.8433 41.9254C40.8067 44.4419 41.5538 47.117 42.3403 49.7327C43.5297 53.6561 44.8175 57.4409 47.1769 60.2943C48.3565 61.721 49.8114 62.9099 51.6301 63.7521C52.4558 64.1286 53.3602 64.4357 54.3531 64.6636C54.7758 64.4852 55.1789 64.2871 55.5623 64.0691C54.1663 63.8512 52.9572 63.4747 51.8857 62.9694C50.3718 62.2659 49.1528 61.3049 48.1206 60.1556Z" fill="#FF002F"/>
<path d="M42.2813 61.7025C39.0962 57.4917 36.1569 52.2109 33.0701 47.7128C32.8833 47.4453 32.6965 47.1679 32.5098 46.9004V48.0794C32.6572 48.2974 32.8047 48.5153 32.962 48.7432C36.0192 53.281 38.9684 58.5519 42.2223 62.7131C43.0972 63.8327 43.9918 64.873 44.9158 65.7944H45.8891C44.6406 64.6352 43.4413 63.2382 42.2813 61.7025Z" fill="#FF002F"/>
<path d="M43.9034 58.9164C41.2393 54.5669 39.2535 49.078 36.678 44.2926C35.4688 42.0436 34.122 39.9431 32.5 38.1895V39.309C33.9746 41.0429 35.2329 43.1136 36.383 45.323C38.8702 50.1084 40.8657 55.5874 43.6576 59.927C45.0535 62.0968 46.6559 63.9891 48.6417 65.3465C48.8383 65.4852 49.0447 65.614 49.2511 65.7428C49.7132 65.7131 50.1457 65.6734 50.5684 65.6239C50.5291 65.6041 50.4898 65.5843 50.4505 65.5645C47.7569 64.1972 45.6827 61.8193 43.9034 58.9164Z" fill="#FF002F"/>
<path d="M44.7193 57.5308C42.3108 53.112 40.8068 47.5241 38.4868 42.59C37.3268 40.123 35.9603 37.8244 34.1614 35.932C33.6403 35.3871 33.0898 34.8818 32.5 34.4062V35.4168C34.9478 37.5371 36.678 40.4301 38.1034 43.6204C40.3152 48.5247 41.8291 54.1127 44.3949 58.5414C45.6827 60.7509 47.2261 62.6829 49.2806 64.0699C50.0671 64.605 50.9223 65.0508 51.8562 65.4075C52.3477 65.3084 52.8196 65.1895 53.2521 65.0508C52.505 64.8427 51.8071 64.5851 51.1583 64.2681C48.3074 62.881 46.3217 60.4734 44.7193 57.5308Z" fill="#FF002F"/>
<path d="M55.3657 46.0975C57.0369 48.2177 58.7868 50.0506 60.6545 51.3783C60.8708 51.5269 61.0871 51.6755 61.3034 51.8142C61.2542 51.4972 61.1854 51.1801 61.1067 50.873C59.121 49.476 57.2335 47.4449 55.4149 45.077C52.1315 40.7968 49.0742 35.4467 45.899 30.8792C44.798 29.3039 43.6871 27.8177 42.537 26.5H41.6326C43.0482 28.0654 44.4244 29.9182 45.7909 31.9195C48.9563 36.5167 52.0234 41.8669 55.3657 46.0975Z" fill="#FF002F"/>
<path d="M32.5098 58.9388C34.6725 61.287 36.8647 63.6648 38.9586 65.8049H39.7647C37.425 63.4369 34.9379 60.742 32.5098 58.0967V58.9388Z" fill="#FF002F"/>
<path d="M43.0972 60.3037C40.1677 56.0236 37.7101 50.6437 34.8789 45.997C34.122 44.7585 33.3355 43.5597 32.5098 42.46V43.6588C33.2569 44.7189 33.9745 45.8484 34.6823 47.0274C37.4545 51.6939 39.9318 57.0639 42.9497 61.3143C44.1687 63.0284 45.4762 64.5541 46.9311 65.7827H47.7175C47.8355 65.7827 47.9535 65.7827 48.0714 65.7827C46.2233 64.4154 44.6013 62.5132 43.0972 60.3037Z" fill="#FF002F"/>
<path d="M32.5098 64.3778C33.0504 64.8534 33.5911 65.329 34.1318 65.7946H34.8986C34.1121 65.111 33.306 64.4075 32.5098 63.7041V64.3778Z" fill="#FF002F"/>
<path d="M32.5098 54.7969V55.748C35.2328 59.077 38.0443 62.5546 40.7477 65.4774C40.846 65.5864 40.9443 65.6854 41.0426 65.7944H41.8782C41.4752 65.3684 41.0721 64.9325 40.6592 64.4866C37.9853 61.544 35.2033 58.0862 32.5098 54.7969Z" fill="#FF002F"/>
<path d="M32.5098 61.7803C33.6993 62.9395 34.8789 64.0888 36.0487 65.1985C36.2552 65.3966 36.4714 65.5948 36.6779 65.793H37.4643C35.8521 64.2672 34.1809 62.6522 32.5196 61.0273V61.7803H32.5098Z" fill="#FF002F"/>
<path d="M56.3875 31.3936C55.2472 30.3038 54.1068 29.204 52.9861 28.1241C52.5143 27.8368 51.9933 27.5891 51.4231 27.3711C53.3105 29.1941 55.2865 31.0964 57.2427 32.9689C56.997 32.4141 56.7119 31.889 56.3875 31.3936Z" fill="#FF002F"/>
<path d="M56.2499 42.9567C56.3776 42.7784 56.4956 42.5901 56.6136 42.392C53.2614 38.31 49.919 33.3958 46.6651 29.2147C45.9278 28.2636 45.1906 27.3521 44.4631 26.5H43.6177C44.6204 27.6493 45.6329 28.9175 46.6553 30.255C49.7814 34.3172 53.0058 39.0134 56.2499 42.9567Z" fill="#FF002F"/>
<path d="M48.7605 58.8187C47.0008 56.7777 45.9489 54.1026 45.1428 51.1501C43.9239 46.7213 43.2554 41.6783 41.3679 37.2694C40.4242 35.0699 39.1659 33.019 37.3768 31.3049C36.0693 30.0467 34.4669 28.9766 32.5205 28.1543V29.0757C33.9164 29.6999 35.0961 30.4529 36.1185 31.3049C38.9005 33.6432 40.4635 36.7641 41.5646 40.2021C42.3903 42.7781 42.9408 45.5126 43.5503 48.1778C44.0025 50.1791 44.494 52.1409 45.1527 53.9738C46.1357 56.7182 47.5218 59.1654 49.7828 60.9488C51.4442 62.2566 53.5676 63.1781 56.3004 63.6041C56.6347 63.3762 56.9493 63.1384 57.2442 62.8808C55.4255 62.6728 53.892 62.2566 52.5944 61.6721C51.0018 60.9587 49.7632 59.9878 48.7605 58.8187Z" fill="#FF002F"/>
<path d="M60.3883 53.647C57.8029 52.2896 55.6107 49.9019 53.6053 47.0088C50.607 42.6792 48.0511 37.2299 45.1413 32.5436C43.7453 30.2945 42.2708 28.2139 40.6094 26.5098H39.6067C41.5728 28.3922 43.303 30.8692 44.9446 33.5938C47.7955 38.3098 50.3612 43.7492 53.4578 48.0491C55.0111 50.1991 56.6921 52.0717 58.6287 53.4191C59.5036 54.0235 60.4277 54.5288 61.4107 54.9053C61.4304 54.6576 61.45 54.4099 61.4599 54.1622C61.0961 53.9938 60.7422 53.8253 60.3883 53.647Z" fill="#FF002F"/>
<path d="M58.1281 37.2978C58.1281 37.2483 58.1281 37.2087 58.1281 37.1591C58.1281 36.9213 58.1183 36.6836 58.1085 36.4458C55.061 33.2654 51.8858 29.7977 48.9759 26.7263C48.6909 26.6768 48.3861 26.6371 48.0715 26.6074C48.1698 26.7065 48.2583 26.8056 48.3566 26.9047C51.4532 30.1742 54.8644 33.9193 58.1281 37.2978Z" fill="#FF002F"/>
<path d="M57.5385 40.44C57.6172 40.222 57.686 39.9942 57.7548 39.7663C54.3141 35.8924 50.7457 31.3943 47.4328 27.5699C47.1281 27.2132 46.8135 26.8565 46.5186 26.5197C46.2728 26.5098 46.027 26.5098 45.7714 26.5098H45.7026C46.3023 27.1736 46.902 27.877 47.5213 28.5904C50.726 32.3454 54.1863 36.6949 57.5385 40.44Z" fill="#FF002F"/>
<path d="M49.9795 50.8829C47.5317 46.4442 45.9785 40.8166 43.629 35.8628C42.4494 33.3859 41.0731 31.0774 39.2643 29.1751C38.2911 28.1447 37.1802 27.2431 35.9219 26.5H34.2507C35.4206 27.035 36.4626 27.7087 37.3965 28.4914C39.9622 30.6315 41.7612 33.6038 43.2555 36.8932C45.5066 41.8272 47.0599 47.4449 49.6649 51.8935C50.9626 54.1227 52.5354 56.0547 54.5998 57.4517C56.1137 58.4722 57.8832 59.1954 59.9771 59.5323C60.1147 59.2945 60.2327 59.0468 60.3507 58.7991C58.8958 58.5911 57.6276 58.2047 56.4873 57.6498C53.6168 56.2628 51.6114 53.8453 49.9795 50.8829Z" fill="#FF002F"/>
<path d="M50.765 56.8366C48.9562 54.8055 47.7372 52.1601 46.7148 49.2473C45.1813 44.878 44.1097 39.934 42.0355 35.6539C40.9935 33.5138 39.7057 31.5323 37.9657 29.8975C36.5009 28.5104 34.7118 27.3611 32.5098 26.5586V27.4206C34.1711 28.0547 35.5572 28.8968 36.7565 29.8975C39.4304 32.1366 41.1114 35.1882 42.4091 38.5469C43.3823 41.0635 44.1392 43.7584 44.9355 46.374C46.1446 50.3074 47.4423 54.102 49.8212 56.9654C51.0107 58.402 52.4656 59.5909 54.2941 60.4331C55.5229 60.9978 56.9189 61.404 58.5114 61.6121C58.7178 61.3743 58.9243 61.1266 59.111 60.869C57.3416 60.6808 55.8375 60.2547 54.5399 59.6504C53.026 58.9568 51.7972 57.9958 50.765 56.8366Z" fill="#FF002F"/>
<path d="M51.7882 48.941C49.0652 44.5519 47.0106 39.0134 44.3859 34.1983C43.0686 31.7907 41.6137 29.5516 39.8344 27.7385C39.4116 27.3025 38.9594 26.8864 38.4974 26.5H37.2981C37.5537 26.6882 37.7995 26.8765 38.0452 27.0846C40.5028 29.1255 42.4099 32.0285 44.1106 35.2386C46.6567 40.0637 48.7211 45.5922 51.572 49.9615C52.9974 52.1511 54.6292 54.0533 56.6248 55.4206C57.9028 56.2925 59.3282 56.9464 60.9306 57.3229C61.0092 57.0851 61.0682 56.8473 61.1272 56.6095C60.1638 56.3916 59.2692 56.0646 58.4435 55.6485C55.7106 54.2713 53.6069 51.8637 51.7882 48.941Z" fill="#FF002F"/>
</svg>
