<svg width="92" height="92" viewBox="0 0 92 92" fill="none" xmlns="http://www.w3.org/2000/svg">
<rect width="92" height="92" rx="25.2626" fill="white"/>
<g clip-path="url(#clip0_15333_8107)">
<path d="M56.3151 34.1133C56.1185 33.7832 55.763 33.5627 55.3573 33.5627C54.7385 33.5627 54.2368 34.0753 54.2368 34.708C54.2368 35.0413 54.3763 35.3414 54.5987 35.5507L63.0449 46.0171L54.6926 56.2846H53.7818H51.0843L58.9777 46.8964C58.9828 46.8906 58.9874 46.8848 58.9923 46.879C59.2138 46.6326 59.3117 46.344 59.3065 46.0595C59.3117 45.7751 59.2138 45.4864 58.994 45.2394L58.9923 45.2399C58.9874 45.2341 58.9828 45.2283 58.9777 45.2226L49.552 34.1314C49.5499 34.1288 49.5479 34.1262 49.5456 34.1236C49.3505 33.7877 48.9919 33.5627 48.5821 33.5627H41.9623C41.3435 33.5627 40.8418 34.0753 40.8418 34.708C40.8418 34.8999 40.8675 35.0995 40.9701 35.24L49.7428 46.102L42.266 55.2712C42.2215 55.3166 41.5772 56.2551 40.4444 56.2551H31.5148C30.3003 56.2551 29.2933 55.2864 29.2933 53.9996V38.1051C29.2933 36.985 30.3003 35.8345 31.5422 35.8345H37.0976C37.7524 35.8345 38.218 35.3774 38.218 34.708C38.218 34.0386 37.7524 33.541 37.0976 33.541L31.4878 33.5637C28.8302 33.5637 27.0449 35.8041 27.0449 38.0818V53.9996C27.0449 56.452 29.16 58.5408 31.4878 58.5408H40.4149C40.8651 58.5408 41.2769 58.4734 41.6478 58.3655C41.7007 58.3501 41.753 58.3338 41.8041 58.3168C43.035 57.9091 43.7778 57.0714 43.9216 56.8939L52.3362 46.8697C52.7342 46.4082 52.7872 45.7388 52.3428 45.2394L52.3411 45.2399C52.3362 45.2341 52.3316 45.2283 52.3267 45.2226L44.3672 35.8345H47.1308H48.0415L56.3594 46.0596L47.6064 56.8521C47.6035 56.8553 47.6089 56.8646 47.6213 56.8791C47.5395 57.0381 47.493 57.219 47.493 57.4111C47.493 58.0436 47.9947 58.5564 48.6133 58.5564H55.2332C55.6431 58.5564 56.0014 58.331 56.1968 57.9953C56.1989 57.9927 56.201 57.9901 56.2031 57.9876L65.6289 46.8964C65.6338 46.8906 65.6384 46.8848 65.6434 46.879C66.0892 46.3801 66.0364 45.7107 65.6384 45.2492L56.3151 34.1133Z" fill="#141413"/>
</g>
<defs>
<clipPath id="clip0_15333_8107">
<rect width="39.78" height="39.78" fill="white" transform="translate(26 26)"/>
</clipPath>
</defs>
</svg>
