<svg width="92" height="92" viewBox="0 0 92 92" fill="none" xmlns="http://www.w3.org/2000/svg">
<rect width="92" height="92" rx="25.2626" fill="white"/>
<path d="M43.9711 45.6742V52.7397H41.7317V35.292H47.6684C49.173 35.292 50.456 35.7942 51.5057 36.7985C52.5788 37.8029 53.1153 39.0291 53.1153 40.4773C53.1153 41.9604 52.5788 43.1867 51.5057 44.1794C50.4677 45.172 49.1847 45.6625 47.6684 45.6625H43.9711V45.6742ZM43.9711 37.4408V43.5254H47.7151C48.6015 43.5254 49.348 43.2217 49.9312 42.6261C50.526 42.0305 50.8292 41.3064 50.8292 40.4889C50.8292 39.6831 50.526 38.9707 49.9312 38.3751C49.348 37.7562 48.6132 37.4525 47.7151 37.4525H43.9711V37.4408Z" fill="#5F6368"/>
<path d="M58.9695 40.4053C60.6257 40.4053 61.9321 40.8491 62.8885 41.7366C63.8449 42.6242 64.3231 43.8388 64.3231 45.3803V52.7378H62.1887V51.0794H62.0953C61.1739 52.4458 59.9376 53.1232 58.398 53.1232C57.08 53.1232 55.9837 52.7378 55.0972 51.9553C54.2108 51.1729 53.7676 50.2036 53.7676 49.0357C53.7676 47.7978 54.2341 46.8168 55.1672 46.0927C56.1003 45.357 57.3483 44.9949 58.8995 44.9949C60.2292 44.9949 61.3256 45.2402 62.177 45.7307V45.2168C62.177 44.4344 61.8737 43.7804 61.2556 43.2315C60.6374 42.6826 59.9143 42.414 59.0862 42.414C57.8382 42.414 56.8468 42.9395 56.1236 44.0023L54.1525 42.7643C55.2372 41.1877 56.8468 40.4053 58.9695 40.4053ZM56.077 49.0707C56.077 49.6547 56.3219 50.1452 56.8234 50.5306C57.3133 50.9159 57.8965 51.1145 58.5613 51.1145C59.506 51.1145 60.3458 50.7641 61.0806 50.0634C61.8154 49.3627 62.1887 48.5452 62.1887 47.5992C61.4888 47.0504 60.5208 46.7701 59.2728 46.7701C58.363 46.7701 57.6049 46.992 56.9984 47.4241C56.3802 47.8795 56.077 48.4284 56.077 49.0707Z" fill="#5F6368"/>
<path d="M76.4997 40.791L69.0351 57.9818H66.7257L69.5016 51.9674L64.5796 40.791H67.0173L70.563 49.3631H70.6096L74.062 40.791H76.4997Z" fill="#5F6368"/>
<path d="M35.0637 44.2488C35.0637 43.5177 34.9983 42.8182 34.877 42.1455H25.4902V45.9994L30.8963 46.0006C30.677 47.2829 29.9714 48.376 28.8902 49.1047V51.6051H32.1081C33.9871 49.8638 35.0637 47.2899 35.0637 44.2488Z" fill="#4285F4"/>
<path d="M28.8913 49.1043C27.9956 49.7093 26.8421 50.0631 25.4926 50.0631C22.8858 50.0631 20.6744 48.3043 19.8824 45.9336H16.563V48.5122C18.2075 51.7799 21.5876 54.0221 25.4926 54.0221C28.1915 54.0221 30.4589 53.1334 32.1093 51.6035L28.8913 49.1043Z" fill="#34A853"/>
<path d="M19.5694 44.0201C19.5694 43.3544 19.6802 42.7109 19.882 42.106V39.5273H16.5625C15.8826 40.8785 15.5 42.4038 15.5 44.0201C15.5 45.6364 15.8837 47.1616 16.5625 48.5128L19.882 45.9342C19.6802 45.3292 19.5694 44.6857 19.5694 44.0201Z" fill="#FABB05"/>
<path d="M25.4926 37.9766C26.9657 37.9766 28.2848 38.4846 29.3264 39.4773L32.1781 36.6242C30.4461 35.0091 28.188 34.0176 25.4926 34.0176C21.5888 34.0176 18.2075 36.2599 16.563 39.5275L19.8824 42.1061C20.6744 39.7354 22.8858 37.9766 25.4926 37.9766Z" fill="#E94235"/>
</svg>
