<svg width="92" height="92" viewBox="0 0 92 92" fill="none" xmlns="http://www.w3.org/2000/svg">
<rect width="92" height="92" rx="25.2626" fill="white"/>
<path d="M52.5348 34.4473H40.6631V55.7348H52.5348V34.4473Z" fill="#E86224"/>
<path d="M41.42 45.1021C41.42 40.9422 43.3288 37.0147 46.5993 34.4583C40.71 29.8336 32.1903 30.8445 27.558 36.7242C22.9257 42.6038 23.9499 51.1212 29.8392 55.7343C34.7625 59.592 41.676 59.592 46.5993 55.7343C43.3288 53.1779 41.42 49.2504 41.42 45.1021Z" fill="#E11F26"/>
<path d="M68.55 45.1025C68.55 52.5857 62.4745 58.6396 54.9906 58.6396C51.9529 58.6396 48.9966 57.6171 46.6106 55.7463C52.4999 51.1216 53.5241 42.6159 48.8918 36.7362C48.2284 35.888 47.4602 35.1211 46.6106 34.4587C52.4999 29.834 61.0196 30.8566 65.6519 36.7362C67.5258 39.1067 68.55 42.0581 68.55 45.1025Z" fill="#F29C21"/>
</svg>
