<svg width="92" height="92" viewBox="0 0 92 92" fill="none" xmlns="http://www.w3.org/2000/svg">
<g clip-path="url(#clip0_17721_13230)">
<g clip-path="url(#clip1_17721_13230)">
<path d="M90.5412 32.4685C89.4249 24.0437 86.4429 16.4089 81.1846 10.817H81.1833C75.5924 5.55922 67.9573 2.57731 59.5316 1.46166C51.4852 0.39528 46.0066 0.657371 46.0066 0.657371C46.0066 0.657371 40.5267 0.39528 32.4804 1.46166C24.0547 2.57731 16.4208 5.55922 10.8293 10.817C5.5716 16.4089 2.58827 24.0437 1.47258 32.4685C0.405575 40.5141 0.668892 45.9937 0.668892 45.9937C0.668892 45.9937 0.405575 51.4724 1.47258 59.5187C2.58827 67.9431 5.57096 75.5776 10.8287 81.1695L10.8293 81.1701C16.4208 86.4279 24.0547 89.4098 32.4804 90.5268C40.5267 91.5924 46.0066 91.3298 46.0066 91.3298C46.0066 91.3298 51.4852 91.5924 59.5316 90.5268C67.9573 89.4098 75.5924 86.4279 81.1833 81.1701L81.1846 81.1695C86.4429 75.5776 89.4249 67.9431 90.5412 59.5187C91.607 51.4724 91.3443 45.9937 91.3443 45.9937C91.3443 45.9937 91.607 40.5141 90.5412 32.4685Z" fill="#1F4AC7"/>
<path d="M17.332 32.7158H25.4788C26.7174 32.7158 27.8581 32.9389 28.9008 33.3838C29.9434 33.8293 30.8445 34.432 31.6058 35.1923C32.3658 35.9529 32.9629 36.8492 33.3978 37.8807C33.8321 38.9127 34.0493 40.0149 34.0493 41.188C34.0493 42.3613 33.8321 43.4692 33.3978 44.5118C32.9629 45.5544 32.3658 46.4564 31.6058 47.2164C30.8445 47.9773 29.9378 48.58 28.8845 49.0249C27.8306 49.4704 26.685 49.6929 25.4464 49.6929H21.7642V56.5034H17.332V32.7158ZM21.7642 36.8215V45.5872H25.1531C25.8052 45.5872 26.4023 45.473 26.9452 45.245C27.4881 45.0169 27.9554 44.7024 28.3467 44.3C28.7379 43.8985 29.0418 43.4314 29.2589 42.8989C29.4761 42.3669 29.5853 41.7966 29.5853 41.188C29.5853 40.5802 29.4761 40.0099 29.2589 39.4774C29.0418 38.9451 28.7379 38.4834 28.3467 38.0925C27.9554 37.7016 27.4881 37.3918 26.9452 37.1637C26.4023 36.9357 25.8052 36.8215 25.1531 36.8215H21.7642Z" fill="white"/>
<path d="M44.3014 56.5224C43.1495 56.5224 42.0145 56.308 40.8963 55.8791C39.7769 55.4498 38.7723 54.8264 37.8818 54.01C36.9908 53.1932 36.2738 52.1936 35.7309 51.0103C35.1875 49.8273 34.916 48.482 34.916 46.9745C34.916 45.4458 35.1818 44.0906 35.7147 42.9072C36.247 41.7239 36.9527 40.724 37.8332 39.9072C38.713 39.0908 39.7232 38.4681 40.8632 38.0388C42.0039 37.6095 43.1714 37.3945 44.3663 37.3945C45.6261 37.3945 46.7886 37.6229 47.8532 38.0781C48.9177 38.5336 49.7975 39.1547 50.4932 39.9415V37.4273H54.8924V56.4899H50.4932V53.7813C49.7975 54.6324 48.9071 55.3025 47.8207 55.7905C46.7343 56.2787 45.5612 56.5224 44.3014 56.5224ZM45.0184 52.4819C45.8439 52.4819 46.6039 52.3393 47.2997 52.0536C47.9942 51.7681 48.592 51.37 49.0918 50.8596C49.591 50.3495 49.9878 49.758 50.2811 49.0848C50.5744 48.4118 50.721 47.6871 50.721 46.9118C50.721 46.1571 50.5744 45.4427 50.2811 44.7698C49.9878 44.0965 49.591 43.5097 49.0918 43.0096C48.592 42.5098 47.9942 42.117 47.2997 41.8315C46.6039 41.5457 45.8439 41.4029 45.0184 41.4029C44.2141 41.4029 43.459 41.5457 42.7533 41.8315C42.0476 42.117 41.4336 42.5045 40.9125 42.9943C40.3909 43.4841 39.9834 44.0656 39.6901 44.7386C39.3969 45.4124 39.2502 46.1368 39.2502 46.9118C39.2502 47.6871 39.3969 48.4168 39.6901 49.1C39.9834 49.7833 40.3909 50.3751 40.9125 50.8749C41.4336 51.375 42.0476 51.7681 42.7533 52.0536C43.459 52.3393 44.2141 52.4819 45.0184 52.4819Z" fill="white"/>
<path d="M64.1409 55.6674L56.3198 37.4297H61.0128L66.3242 50.4711L71.3429 37.4297H75.9698L64.597 65.258H60.133L64.1409 55.6674Z" fill="white"/>
</g>
</g>
<defs>
<clipPath id="clip0_17721_13230">
<rect width="92" height="92.0043" fill="white"/>
</clipPath>
<clipPath id="clip1_17721_13230">
<rect width="92" height="92.0043" fill="white"/>
</clipPath>
</defs>
</svg>
