<svg width="92" height="92" viewBox="0 0 92 92" fill="none" xmlns="http://www.w3.org/2000/svg">
<rect width="92" height="92" rx="25.2626" fill="white"/>
<path d="M53.7963 37.5C50.1666 37.5 46.9229 39.3814 46.9229 42.8573C46.9229 46.8436 52.6757 47.1189 52.6757 49.1215C52.6757 49.9647 51.7094 50.7195 50.059 50.7195C47.7167 50.7195 45.9661 49.6648 45.9661 49.6648L45.2171 53.1724C45.2171 53.1724 47.2337 54.0633 49.9112 54.0633C53.8796 54.0633 57.0023 52.0896 57.0023 48.5542C57.0023 44.342 51.2255 44.0748 51.2255 42.2161C51.2255 41.5556 52.0188 40.8318 53.6645 40.8318C55.5213 40.8318 57.0363 41.5989 57.0363 41.5989L57.7693 38.2111C57.7693 38.2111 56.121 37.5 53.7963 37.5ZM20.5879 37.7557L20.5 38.267C20.5 38.267 22.027 38.5465 23.4024 39.104C25.1732 39.7433 25.2994 40.1154 25.5976 41.2713L28.8475 53.7996H33.2041L39.9157 37.7557H35.5691L31.2565 48.664L29.4967 39.4176C29.3353 38.3594 28.5179 37.7557 27.5172 37.7557H20.5879ZM41.6635 37.7557L38.2538 53.7996H42.3986L45.7963 37.7557H41.6635ZM64.7806 37.7557C63.7811 37.7557 63.2515 38.2908 62.863 39.2258L56.7906 53.7996H61.1371L61.9781 51.3707H67.2734L67.7848 53.7996H71.62L68.2742 37.7557H64.7806ZM65.3459 42.0903L66.6342 48.1107H63.1826L65.3459 42.0903Z" fill="#1434CB"/>
</svg>
